<?xml version="1.0" standalone="no"?>
<!DOCTYPE svg PUBLIC "-//W3C//DTD SVG 20010904//EN"
 "http://www.w3.org/TR/2001/REC-SVG-20010904/DTD/svg10.dtd">
<svg version="1.0" xmlns="http://www.w3.org/2000/svg"
 width="260.000000pt" height="260.000000pt" viewBox="0 0 260.000000 260.000000"
 preserveAspectRatio="xMidYMid meet">
<metadata>
Created by potrace 1.14, written by Peter Selinger 2001-2017
</metadata>
<g transform="translate(0.000000,260.000000) scale(0.100000,-0.100000)"
fill="#000000" stroke="none">
<path d="M1140 2590 c-25 -4 -58 -10 -75 -13 -112 -19 -238 -62 -348 -118 -76
-39 -187 -109 -213 -133 -6 -6 -37 -33 -69 -61 -129 -111 -255 -288 -331 -464
-108 -250 -129 -556 -58 -835 34 -130 103 -282 178 -391 124 -180 307 -341
493 -434 104 -52 258 -104 343 -116 14 -2 44 -8 67 -13 75 -17 328 -8 432 16
148 34 367 118 379 145 2 4 9 7 16 7 23 0 203 143 280 223 93 97 160 190 216
298 39 76 102 229 94 229 -2 0 1 11 6 26 6 14 12 37 15 52 3 15 7 38 10 52 15
69 20 137 19 260 -2 328 -129 638 -359 874 -200 207 -419 327 -695 382 -85 18
-332 26 -400 14z m857 -774 c88 -46 126 -148 89 -238 -20 -46 -869 -896 -915
-915 -45 -19 -98 -19 -145 1 -49 20 -490 460 -510 508 -40 95 -4 198 86 244
38 20 125 22 159 4 13 -7 95 -83 181 -168 l158 -156 362 361 c315 313 368 362
403 370 51 11 97 8 132 -11z"/>
</g>
</svg>
